HIERARCHY
ROOT Hips
{
	OFFSET 0.000000 0.000000 0.000000 
	CHANNELS 6 Xposition Yposition Zposition Yrotation Zrotation Xrotation 
	JOINT Lumbar
	{
		OFFSET 0.000000 0.000000 0.000000 
		CHANNELS 3 Zrotation Xrotation Yrotation
		JOINT Neck
		{
			OFFSET 0.000000 0.445665 0.000000 
			CHANNELS 3 Zrotation Xrotation Yrotation
			End Site
			{
				OFFSET 0.000000 0.227535 0.000000 
			}
		}
		JOINT RightShoulder
		{
			OFFSET 0.019635 0.377685 0.194865 
			CHANNELS 3 Zrotation Xrotation Yrotation
			JOINT RightElbow
			{
				OFFSET 0.000000 -0.243375 0.000000 
				CHANNELS 2 Zrotation Yrotation
				JOINT RightWrist
				{
					OFFSET 0.000000 -0.264825 0.000000 
					CHANNELS 2 Zrotation Xrotation
					End Site
					{
						OFFSET 0.006600 -0.176220 0.000990 
					}
				}
			}
		}
		JOINT LeftShoulder
		{
			OFFSET 0.019635 0.377685 -0.194865 
			CHANNELS 3 Zrotation Xrotation Yrotation
			JOINT LeftElbow
			{
				OFFSET 0.000000 -0.243375 0.000000 
				CHANNELS 2 Zrotation Yrotation
				JOINT LeftWrist
				{
					OFFSET 0.000000 -0.264825 0.000000 
					CHANNELS 2 Zrotation Xrotation
					End Site
					{
						OFFSET 0.006600 -0.176220 -0.000990 
					}
				}
			}
		}
	}
	JOINT RightHip
	{
		OFFSET 0.052140 -0.069960 0.075570 
		CHANNELS 3 Zrotation Xrotation Yrotation
		JOINT RightKnee
		{
			OFFSET 0.000000 -0.402270 0.000000 
			CHANNELS 1 Zrotation
			JOINT RightAnkle
			{
				OFFSET 0.000000 -0.404085 0.000000 
				CHANNELS 3 Zrotation Xrotation Yrotation
				End Site
				{
					OFFSET 0.204105 -0.089430 0.008415 
				}
			}
		}
	}
	JOINT LeftHip
	{
		OFFSET 0.052140 -0.069960 -0.075570 
		CHANNELS 3 Zrotation Xrotation Yrotation
		JOINT LeftKnee
		{
			OFFSET 0.000000 -0.402270 0.000000 
			CHANNELS 1 Zrotation
			JOINT LeftAnkle
			{
				OFFSET 0.000000 -0.404085 0.000000 
				CHANNELS 3 Zrotation Xrotation Yrotation
				End Site
				{
					OFFSET 0.204105 -0.089430 -0.008415 
				}
			}
		}
	}
}
MOTION
Frames: 33
Frame Time: 0.02
0.44102 -0.25971 -0.03455 -174.46811 -30.82939 -0.25212 36.66343 2.41325 -3.87699 7.17882 -8.93175 -2.11971 43.0366 -1.95712 13.60418 128.43708 97.5161 9.50293 1.97915 44.00339 0.69751 -6.82608 133.6659 -102.45469 7.84809 -4.11561 108.13802 -9.75705 -8.98573 -101.1 -10.07605 -1.00808 -2.88976 110.05683 6.28193 3.51668 -101.71677 -11.93929 1.38184 3.15265
0.4412 -0.26003 -0.03475 -174.47721 -30.68739 -0.29234 36.68237 2.36244 -3.78453 7.19011 -8.81435 -2.11971 42.73043 -1.6189 13.67281 128.50996 97.53201 9.6141 2.37802 43.87045 0.65846 -6.89643 133.69241 -102.67344 7.9206 -4.17091 107.94999 -9.74361 -9.1252 -101.09409 -10.03322 -1.03638 -2.90145 109.95832 6.28334 3.45011 -101.74661 -11.9421 1.37932 3.15132
0.44127 -0.26029 -0.03507 -174.51286 -30.55194 -0.35612 36.74108 2.30011 -3.70244 7.11819 -8.59305 -2.11972 42.52454 -1.26408 13.76984 128.52828 97.5071 9.78179 2.99082 43.973 0.88669 -6.99839 133.59248 -103.13014 8.04272 -4.20141 107.74729 -9.70431 -9.29088 -101.07565 -9.98604 -1.06813 -2.91436 109.86634 6.30369 3.3498 -101.77936 -11.94461 1.37543 3.14895
0.4414 -0.26057 -0.03533 -174.53776 -30.4172 -0.41011 36.78595 2.24363 -3.61613 7.08589 -8.41456 -2.11972 42.28299 -0.92699 13.8516 128.56935 97.5022 9.91602 3.4803 43.98265 0.99856 -7.08418 133.54492 -103.44247 8.13129 -4.24143 107.55649 -9.67632 -9.43975 -101.06205 -9.94234 -1.09678 -2.92604 109.77504 6.3162 3.26521 -101.80968 -11.94748 1.37222 3.14711
0.4415 -0.26089 -0.03562 -174.55728 -30.26649 -0.46036 36.81202 2.1835 -3.52708 7.04719 -8.2518 -2.11972 41.98996 -0.54635 13.9423 128.6216 97.49276 10.08616 4.07549 43.92449 1.08789 -7.17958 133.52156 -103.90103 8.2669 -4.29145 107.34273 -9.65025 -9.61007 -101.05201 -9.89192 -1.13203 -2.94063 109.66766 6.32584 3.17949 -101.84476 -11.94886 1.36898 3.14511
0.44163 -0.2611 -0.03587 -174.59404 -30.15132 -0.52408 36.88783 2.12849 -3.44689 7.00095 -8.03213 -2.11972 41.82863 -0.25207 14.01967 128.63736 97.48155 10.19488 4.5027 44.06342 1.28537 -7.26203 133.41699 -104.11509 8.31788 -4.31304 107.17447 -9.61384 -9.74152 -101.03208 -9.85448 -1.15435 -2.94945 109.59654 6.34555 3.08753 -101.87106 -11.95346 1.36538 3.14316
0.44183 -0.26102 -0.03597 -174.67437 -30.1253 -0.61764 37.0811 2.09229 -3.38341 6.96235 -7.68798 -2.11972 42.04406 -0.208 14.0754 128.55674 97.4885 10.1064 4.41831 44.7288 1.74905 -7.29666 133.11598 -103.58702 8.10123 -4.27169 107.12468 -9.55729 -9.76084 -100.98175 -9.85554 -1.13959 -2.9418 109.61177 6.39154 2.99126 -101.86659 -11.96736 1.36123 3.1417
0.44205 -0.26085 -0.03603 -174.77067 -30.13593 -0.72419 37.32461 2.06148 -3.32956 6.91753 -7.28942 -2.11972 42.38332 -0.25021 14.1126 128.44253 97.49383 9.95632 4.15788 45.57845 2.30688 -7.31746 132.738 -102.80948 7.80171 -4.20114 107.12287 -9.49088 -9.73983 -100.92293 -9.86961 -1.11179 -2.92834 109.66513 6.44642 2.88892 -101.85412 -11.9845 1.35667 3.14028
0.44226 -0.26073 -0.03611 -174.85803 -30.13489 -0.82583 37.55223 2.02718 -3.27464 6.87011 -6.91138 -2.11972 42.64327 -0.24803 14.14476 128.34897 97.4896 9.84259 3.97497 46.31953 2.8004 -7.34732 132.39654 -102.14972 7.55366 -4.13672 107.10649 -9.42758 -9.73603 -100.87196 -9.87673 -1.09025 -2.91765 109.70941 6.49514 2.78636 -101.8491 -12.00008 1.35222 3.13878
0.4425 -0.26055 -0.03619 -174.95341 -30.11399 -0.92416 37.75337 1.99688 -3.20583 6.84244 -6.54693 -2.11972 43.00422 -0.26696 14.23652 128.23052 97.52217 9.69475 3.80752 47.17421 3.39355 -7.36738 132.04321 -101.46988 7.24781 -4.0992 107.06028 -9.36906 -9.73751 -100.80379 -9.88802 -1.06733 -2.90643 109.72055 6.55336 2.69549 -101.82832 -12.01617 1.34816 3.13754
0.44266 -0.26048 -0.03626 -175.03553 -30.14188 -1.03208 38.01925 1.95964 -3.16848 6.77356 -6.14322 -2.11972 43.18233 -0.26284 14.19712 128.15701 97.48485 9.60369 3.56628 47.83202 3.79869 -7.4032 131.69924 -100.78165 7.0436 -4.00203 107.08625 -9.2987 -9.71852 -100.76951 -9.89381 -1.04427 -2.89497 109.80788 6.59377 2.57892 -101.83816 -12.03178 1.34306 3.13571
0.44259 -0.26073 -0.03627 -175.07695 -30.3058 -1.16389 38.46709 1.90239 -3.21229 6.59004 -5.64021 -2.11972 42.83123 -0.17324 13.82023 128.21257 97.19682 9.67376 3.13749 47.90943 3.65592 -7.49367 131.38943 -100.02185 7.12519 -3.72067 107.31327 -9.19715 -9.64879 -100.8315 -9.881 -1.02297 -2.88368 110.11185 6.58195 2.39631 -101.93644 -12.04686 1.33658 3.13313
0.44243 -0.26109 -0.03626 -175.10436 -30.51566 -1.30463 38.97516 1.83799 -3.28797 6.36616 -5.10112 -2.11972 42.29079 -0.05831 13.30875 128.31525 96.84836 9.80431 2.64422 47.77998 3.32099 -7.5989 131.09428 -99.2781 7.31363 -3.38476 107.60889 -9.08439 -9.56044 -100.92768 -9.8623 -1.00215 -2.87245 110.48828 6.55202 2.18787 -102.0653 -12.0611 1.32887 3.12985
0.4423 -0.2614 -0.03627 -175.13814 -30.69762 -1.44086 39.44547 1.77653 -3.35126 6.16267 -4.58153 -2.11972 41.83201 0.04527 12.84474 128.39892 96.56744 9.91454 2.19735 47.73823 3.07575 -7.69209 130.79998 -98.60185 7.46392 -3.09215 107.8643 -8.97738 -9.48317 -101.00804 -9.84646 -0.98179 -2.8616 110.82126 6.5308 1.98877 -102.17905 -12.07465 1.32078 3.12629
0.4422 -0.26169 -0.03627 -175.1725 -30.91026 -1.57965 39.96187 1.71633 -3.40619 5.95004 -4.04587 -2.11972 41.39403 0.14775 12.43527 128.47176 96.12223 9.99442 1.6733 47.72835 2.82171 -7.80717 130.47126 -97.61511 7.57097 -2.72282 108.15936 -8.86696 -9.39355 -101.08991 -9.83022 -0.95817 -2.84887 111.19987 6.50769 1.79831 -102.29818 -12.09267 1.31646 3.12512
0.44202 -0.26206 -0.03627 -175.2021 -31.06975 -1.71481 40.39532 1.65204 -3.48579 5.74721 -3.53708 -2.11972 40.86879 0.25639 11.8838 128.57812 95.99861 10.15013 1.29568 47.60219 2.54197 -7.88051 130.21864 -97.26476 7.79009 -2.49762 108.38769 -8.76148 -9.32565 -101.17611 -9.81334 -0.94157 -2.84011 111.50028 6.48431 1.58539 -102.41281 -12.10131 1.30421 3.11895
0.44159 -0.26263 -0.03629 -175.22204 -31.06796 -1.8399 40.58942 1.57548 -3.62728 5.57927 -3.10128 -2.11972 40.12527 0.4048 10.94487 128.77172 96.83209 10.52281 1.34999 47.19 2.21221 -7.83364 130.17402 -98.82022 8.33153 -2.71097 108.41308 -8.66921 -9.32342 -101.27257 -9.79527 -0.94478 -2.84268 111.56544 6.4627 1.30298 -102.51317 -12.0828 1.26864 3.09796
0.44107 -0.26327 -0.0363 -175.23759 -31.01141 -1.96052 40.69676 1.49554 -3.7921 5.42299 -2.69603 -2.11972 39.30431 0.55398 9.87333 128.99645 97.9813 10.96604 1.55254 46.66985 1.86721 -7.7446 130.2056 -100.99009 8.97559 -3.06663 108.36898 -8.58298 -9.34372 -101.37108 -9.77685 -0.95501 -2.84922 111.54935 6.44179 1.00134 -102.60694 -12.05509 1.22544 3.07216
0.44062 -0.26386 -0.0363 -175.25504 -30.98205 -2.08177 40.84081 1.41888 -3.94526 5.26273 -2.28351 -2.11972 38.53361 0.68368 8.8808 129.20303 98.95018 11.3623 1.68033 46.20842 1.54622 -7.67576 130.20176 -102.7777 9.54697 -3.33901 108.35783 -8.49605 -9.35311 -101.46426 -9.75907 -0.96172 -2.85374 111.57147 6.42167 0.71774 -102.70003 -12.03261 1.18692 3.04938
0.44006 -0.26454 -0.03635 -175.27242 -30.94504 -2.20944 40.99896 1.33453 -4.10424 5.09552 -1.84133 -2.11972 37.69254 0.89321 7.80331 129.42812 100.07191 11.82267 1.83695 45.69928 1.14793 -7.60288 130.20174 -104.99351 10.23033 -3.6867 108.34368 -8.39991 -9.36451 -101.57693 -9.73905 -0.9698 -2.85917 111.59132 6.39604 0.39449 -102.80962 -12.00588 1.14335 3.02314
0.4397 -0.26504 -0.0363 -175.28907 -30.9098 -2.32231 41.10574 1.26561 -4.25591 4.94603 -1.46923 -2.11972 36.98239 0.93852 6.87443 129.62147 100.95178 12.16662 1.96963 45.26635 0.90769 -7.52841 130.21162 -106.47224 10.70552 -3.91369 108.31795 -8.32474 -9.3775 -101.64939 -9.72372 -0.97671 -2.86364 111.59489 6.38257 0.14894 -102.883 -11.98555 1.10834 3.00285
0.43995 -0.26497 -0.036 -175.3049 -30.89734 -2.39737 41.0966 1.23915 -4.38432 4.84302 -1.27886 -2.11972 36.65121 0.51145 6.37778 129.71869 101.07913 12.16135 1.99976 45.07279 1.12409 -7.45817 130.23091 -105.68652 10.56193 -3.75856 108.28042 -8.30422 -9.38796 -101.60706 -9.72124 -0.97868 -2.86443 111.57952 6.39993 0.12853 -102.85673 -11.98766 1.10046 3.0012
0.4404 -0.26471 -0.03561 -175.32016 -30.88753 -2.45722 41.03769 1.22853 -4.50393 4.75744 -1.15912 -2.11973 36.45572 -0.07743 6.03818 129.78264 100.95292 12.0378 2.00088 44.96016 1.49792 -7.3881 130.25731 -104.15188 10.20808 -3.47988 108.23274 -8.30493 -9.39953 -101.52466 -9.72353 -0.97924 -2.8641 111.54918 6.42996 0.18605 -102.79439 -11.99614 1.10118 3.00552
0.44075 -0.26455 -0.03526 -175.33571 -30.87327 -2.52279 40.99796 1.2114 -4.6257 4.664 -1.00989 -2.11973 36.19996 -0.5802 5.634 129.86237 100.94921 11.97543 2.01591 44.80995 1.78982 -7.3189 130.27995 -103.01251 9.96255 -3.26732 108.18722 -8.2972 -9.41174 -101.46254 -9.72382 -0.98044 -2.86429 111.52109 6.45612 0.20414 -102.74915 -11.99993 1.09689 3.00639
0.44113 -0.26433 -0.03488 -175.35111 -30.87064 -2.59351 40.96916 1.19139 -4.75605 4.57122 -0.85008 -2.11973 35.93527 -1.13647 5.19543 129.94112 100.92977 11.88564 2.03366 44.65945 2.12497 -7.24395 130.30762 -101.66521 9.66756 -3.01787 108.1495 -8.28478 -9.42021 -101.39165 -9.72349 -0.98183 -2.86457 111.50885 6.47478 0.23836 -102.70047 -12.01062 1.09691 3.01016
0.4415 -0.26419 -0.03455 -175.36658 -30.84535 -2.64963 40.90762 1.18102 -4.86616 4.48039 -0.72943 -2.11973 35.72272 -1.6192 4.86879 130.01272 100.87378 11.82211 2.03614 44.52994 2.40758 -7.18193 130.32533 -100.56201 9.4233 -2.81373 108.09423 -8.28683 -9.43604 -101.32965 -9.72545 -0.98245 -2.86437 111.46182 6.51149 0.25793 -102.65078 -12.00904 1.0902 3.00942
0.44182 -0.26433 -0.0344 -175.38389 -30.75505 -2.67175 40.76186 1.19501 -4.92183 4.39648 -0.6934 -2.11973 35.61936 -1.8639 4.80279 130.08024 100.8218 11.87552 2.00996 44.4418 2.50755 -7.15237 130.3152 -100.34046 9.37891 -2.76769 107.99149 -8.32572 -9.47529 -101.30037 -9.73388 -0.98106 -2.86298 111.31617 6.59993 0.2166 -102.60439 -11.96809 1.06196 2.99422
0.44212 -0.26457 -0.03431 -175.40103 -30.64249 -2.67923 40.58637 1.21792 -4.95738 4.31281 -0.69543 -2.11973 35.56463 -2.02819 4.84642 130.14021 100.73336 11.9564 1.96774 44.372 2.54908 -7.13649 130.29431 -100.38308 9.39094 -2.77072 107.87213 -8.37792 -9.52109 -101.2817 -9.74421 -0.97895 -2.86114 111.13751 6.70514 0.15836 -102.55875 -11.91531 1.02688 2.97442
0.44242 -0.26475 -0.0342 -175.41727 -30.54154 -2.69174 40.42888 1.23568 -5.00254 4.22511 -0.68389 -2.11973 35.48892 -2.22621 4.84731 130.19844 100.6304 12.01388 1.92757 44.29223 2.61692 -7.11679 130.27691 -100.28526 9.37089 -2.74822 107.76163 -8.42276 -9.56171 -101.25926 -9.75276 -0.97727 -2.85955 110.97849 6.79941 0.10866 -102.51465 -11.87067 0.99544 2.95708
0.44277 -0.26495 -0.03406 -175.43763 -30.43424 -2.71061 40.25075 1.25846 -5.04563 4.15447 -0.6588 -2.11973 35.41263 -2.44158 4.8243 130.27711 100.64524 12.11245 1.90752 44.22198 2.69151 -7.08742 130.26517 -100.24645 9.36996 -2.73336 107.64493 -8.47431 -9.61205 -101.23104 -9.76526 -0.97509 -2.85771 110.79958 6.90818 0.05739 -102.46146 -11.81487 0.96185 2.93828
0.443 -0.26515 -0.034 -175.44939 -30.33495 -2.71291 40.10905 1.27289 -5.08812 4.04826 -0.67044 -2.11973 35.34802 -2.5998 4.8743 130.31218 100.41534 12.13462 1.84348 44.13537 2.73585 -7.08085 130.23967 -100.1588 9.34636 -2.71804 107.53771 -8.51425 -9.64321 -101.21783 -9.77005 -0.97384 -2.85631 110.65411 6.99054 0.00518 -102.42769 -11.77908 0.93125 2.92147
0.4429 -0.26531 -0.03416 -175.43738 -30.26246 -2.6735 40.07692 1.26044 -5.13599 3.84283 -0.77048 -2.11973 35.29736 -2.61741 5.1055 130.22574 99.46734 11.92988 1.65055 43.99758 2.71273 -7.13932 130.17271 -99.86038 9.23838 -2.6696 107.45781 -8.52337 -9.62403 -101.24428 -9.75205 -0.97504 -2.85604 110.61248 6.9961 -0.05297 -102.44903 -11.80427 0.90852 2.91026
0.44268 -0.26546 -0.0344 -175.41675 -30.19898 -2.61791 40.08234 1.23952 -5.18361 3.6019 -0.90642 -2.11973 35.25732 -2.57995 5.40439 130.09638 98.28496 11.64971 1.41637 43.84257 2.66021 -7.21933 130.09335 -99.50954 9.10811 -2.62238 107.38864 -8.51959 -9.5847 -101.28547 -9.7264 -0.97724 -2.85625 110.60517 6.97439 -0.11062 -102.48972 -11.84948 0.88934 2.90134
